Coordinates
version=1
nRows=10
nColumns=22
inDegrees=yes

Units are S.I. units (second, meters, Newtons, ...)
If the header above contains a line with 'inDegrees', this indicates whether rotational values are in degrees (yes) or radians (no).

endheader
time	pelvis_tilt	pelvis_list	pelvis_rotation	pelvis_tx	pelvis_ty	pelvis_tz	hip_flexion_r	hip_adduction_r	hip_rotation_r	knee_angle_r	ankle_angle_r	subtalar_angle_r	hip_flexion_l	hip_adduction_l	hip_rotation_l	knee_angle_l	ankle_angle_l	subtalar_angle_l	lumbar_extension	lumbar_bending	lumbar_rotation
      0.01000000	     -0.52222838	      3.82127627	    176.54209047	     -1.36732699	      1.02730378	     -0.05546947	      1.41466254	      6.23626008	     -1.99749046	    -10.80285261	      8.20430054	     -2.33368132	      1.48605372	     -2.65281919	     -4.69852871	    -10.34505501	      9.90603594	     -2.74645288	     -8.76340623	      3.45954104	      1.50604155
      0.02000000	     -0.51692919	      3.82071524	    176.53715721	     -1.36736920	      1.02730046	     -0.05556071	      1.41662154	      6.24086032	     -1.99808167	    -10.80015234	      8.20474839	     -2.33341043	      1.48774998	     -2.65684334	     -4.69902313	    -10.34400491	      9.90650082	     -2.74656910	     -8.77186225	      3.45136742	      1.50347220
      0.03000000	     -0.51118201	      3.81990184	    176.53141485	     -1.36741496	      1.02729662	     -0.05566974	      1.41910605	      6.24623602	     -1.99743591	    -10.79823300	      8.20505466	     -2.33305735	      1.48980183	     -2.66163434	     -4.70032231	    -10.34348958	      9.90706207	     -2.74664671	     -8.78238245	      3.44097149	      1.50075520
      0.04000000	     -0.51140198	      3.81431510	    176.51519318	     -1.36744341	      1.02729948	     -0.05580120	      1.42442963	      6.24725964	     -1.97429070	    -10.81343078	      8.20411252	     -2.33168252	      1.49196414	     -2.66250636	     -4.72368679	    -10.35675466	      9.91036929	     -2.74634605	     -8.80607751	      3.42294524	      1.50409274
      0.05000000	     -0.50579827	      3.80893349	    176.49106434	     -1.36748585	      1.02729794	     -0.05595036	      1.43162866	      6.24941780	     -1.95036455	    -10.82147289	      8.21275152	     -2.33233365	      1.48996471	     -2.66376593	     -4.75753333	    -10.35297020	      9.91197299	     -2.74266482	     -8.82335686	      3.40371674	      1.53253157
      0.06000000	     -0.49782143	      3.80750250	    176.49055559	     -1.36753226	      1.02729120	     -0.05606057	      1.43640163	      6.25452112	     -1.94940756	    -10.81946212	      8.21314146	     -2.33238986	      1.49341768	     -2.66846433	     -4.75864319	    -10.34867732	      9.91213049	     -2.74242166	     -8.83761116	      3.39442667	      1.53154714
      0.07000000	     -0.49186340	      3.79654838	    176.46993214	     -1.36755470	      1.02728696	     -0.05620399	      1.45422703	      6.25045974	     -1.92630252	    -10.84482108	      8.22136793	     -2.33987424	      1.49435626	     -2.66334258	     -4.78543049	    -10.34607315	      9.90755208	     -2.73567956	     -8.85916177	      3.36960637	      1.55601273
      0.08000000	     -0.48368881	      3.79500430	    176.47249276	     -1.36759196	      1.02727962	     -0.05631472	      1.46058389	      6.25600180	     -1.92539999	    -10.84430746	      8.22150193	     -2.34013051	      1.49865486	     -2.66813575	     -4.78619259	    -10.34101012	      9.90780949	     -2.73544442	     -8.87542934	      3.35941665	      1.55651197
      0.09000000	     -0.47969796	      3.78876397	    176.46807737	     -1.36759321	      1.02727740	     -0.05643508	      1.48150402	      6.25660628	     -1.91868863	    -10.87686305	      8.22013701	     -2.34394488	      1.50247125	     -2.66719325	     -4.78589619	    -10.34229251	      9.90550779	     -2.73296900	     -8.90282784	      3.34138711	      1.57099737
      0.10000000	     -0.47067830	      3.78673305	    176.47339264	     -1.36762647	      1.02726969	     -0.05654588	      1.48874036	      6.26213503	     -1.91876850	    -10.87599171	      8.22133449	     -2.34443456	      1.50731254	     -2.67168482	     -4.78846839	    -10.33474071	      9.90582030	     -2.73268010	     -8.91832680	      3.32964806	      1.57370985
